<?xml version="1.0" encoding="UTF-8"?>
<!DOCTYPE svg PUBLIC "-//W3C//DTD SVG 1.1//EN" "http://www.w3.org/Graphics/SVG/1.1/DTD/svg11.dtd">
<svg xmlns="http://www.w3.org/2000/svg" version="1.1" width="1280px" height="1293px" style="shape-rendering:geometricPrecision; text-rendering:geometricPrecision; image-rendering:optimizeQuality; fill-rule:evenodd; clip-rule:evenodd" xmlns:xlink="http://www.w3.org/1999/xlink">
<g><path style="opacity:1" fill="#fae100" d="M 1276.5,-0.5 C 1277.5,-0.5 1278.5,-0.5 1279.5,-0.5C 1279.5,79.1667 1279.5,158.833 1279.5,238.5C 852.941,313.593 426.274,388.26 -0.5,462.5C -0.5,462.167 -0.5,461.833 -0.5,461.5C 425.394,307.871 851.061,153.871 1276.5,-0.5 Z"/></g>
<g><path style="opacity:1" fill="#11191f" d="M 530.5,1292.5 C 357.5,1292.5 184.5,1292.5 11.5,1292.5C 11.5,1078.17 11.5,863.833 11.5,649.5C 134.167,649.333 256.834,649.5 379.5,650C 408.765,698.778 437.432,747.944 465.5,797.5C 379.169,798.5 292.836,798.833 206.5,798.5C 206.5,833.5 206.5,868.5 206.5,903.5C 284.833,903.5 363.167,903.5 441.5,903.5C 441.5,948.5 441.5,993.5 441.5,1038.5C 363.167,1038.5 284.833,1038.5 206.5,1038.5C 206.5,1073.5 206.5,1108.5 206.5,1143.5C 314.5,1143.5 422.5,1143.5 530.5,1143.5C 530.5,1193.17 530.5,1242.83 530.5,1292.5 Z"/></g>
<g><path style="opacity:1" fill="#11181e" d="M 860.5,1292.5 C 795.5,1292.5 730.5,1292.5 665.5,1292.5C 665.667,1207.17 665.5,1121.83 665,1036.5C 589.96,907.585 514.793,778.751 439.5,650C 511.5,649.333 583.5,649.333 655.5,650C 691.873,719.246 728.373,788.412 765,857.5C 801.167,788.5 837.333,719.5 873.5,650.5C 944.5,649.167 1015.5,649.167 1086.5,650.5C 1011.53,779.963 936.366,909.296 861,1038.5C 860.5,1123.17 860.333,1207.83 860.5,1292.5 Z"/></g>
</svg>
