<?xml version="1.0" encoding="UTF-8"?>
<!DOCTYPE svg PUBLIC "-//W3C//DTD SVG 1.1//EN" "http://www.w3.org/Graphics/SVG/1.1/DTD/svg11.dtd">
<svg xmlns="http://www.w3.org/2000/svg" version="1.1" width="960px" height="1246px" style="shape-rendering:geometricPrecision; text-rendering:geometricPrecision; image-rendering:optimizeQuality; fill-rule:evenodd; clip-rule:evenodd" xmlns:xlink="http://www.w3.org/1999/xlink">
<g><path style="opacity:1" fill="#00d3d3" d="M 424.5,-0.5 C 424.833,-0.5 425.167,-0.5 425.5,-0.5C 425.5,38.8333 425.5,78.1667 425.5,117.5C 424.671,110.679 424.171,103.679 424,96.5C 412.667,81.6711 401.167,67.0045 389.5,52.5C 400.918,34.6619 412.585,16.9952 424.5,-0.5 Z"/></g>
<g><path style="opacity:1" fill="#00dad4" d="M 533.5,-0.5 C 533.833,-0.5 534.167,-0.5 534.5,-0.5C 556.779,32.9521 579.279,66.2854 602,99.5C 670.668,196.179 738.835,293.179 806.5,390.5C 804.629,390.141 803.129,389.141 802,387.5C 712.722,272.583 623.222,157.916 533.5,43.5C 533.5,28.8333 533.5,14.1667 533.5,-0.5 Z"/></g>
<g><path style="opacity:1" fill="#00d4d4" d="M 533.5,43.5 C 623.222,157.916 712.722,272.583 802,387.5C 803.129,389.141 804.629,390.141 806.5,390.5C 835.912,432.965 863.078,476.965 888,522.5C 921.302,584.073 943.636,649.407 955,718.5C 956.645,731.635 958.145,744.635 959.5,757.5C 959.5,769.5 959.5,781.5 959.5,793.5C 958.676,789.688 958.176,785.688 958,781.5C 899.951,707.786 842.285,633.786 785,559.5C 784.184,558.177 783.017,557.511 781.5,557.5C 760.41,520.917 737.91,485.25 714,450.5C 653.612,366.445 593.612,282.111 534,197.5C 533.5,146.168 533.333,94.8344 533.5,43.5 Z"/></g>
<g><path style="opacity:1" fill="#00ced4" d="M 389.5,52.5 C 401.167,67.0045 412.667,81.6711 424,96.5C 424.171,103.679 424.671,110.679 425.5,117.5C 425.5,124.167 425.5,130.833 425.5,137.5C 424.12,138.706 422.953,138.373 422,136.5C 405.951,115.957 390.118,95.2904 374.5,74.5C 379.008,66.8116 384.008,59.4783 389.5,52.5 Z"/></g>
<g><path style="opacity:1" fill="#00ceda" d="M 374.5,74.5 C 390.118,95.2904 405.951,115.957 422,136.5C 422.953,138.373 424.12,138.706 425.5,137.5C 425.667,157.503 425.5,177.503 425,197.5C 413.49,213.862 401.99,230.196 390.5,246.5C 388.147,244.899 385.98,242.899 384,240.5C 364.382,214.547 344.382,188.88 324,163.5C 321.488,160.398 319.655,157.398 318.5,154.5C 336.81,127.534 355.477,100.867 374.5,74.5 Z"/></g>
<g><path style="opacity:1" fill="#00c8da" d="M 318.5,154.5 C 319.655,157.398 321.488,160.398 324,163.5C 344.382,188.88 364.382,214.547 384,240.5C 385.98,242.899 388.147,244.899 390.5,246.5C 368.522,277.803 346.189,308.803 323.5,339.5C 300.064,308.947 276.397,278.613 252.5,248.5C 274.118,216.885 296.118,185.551 318.5,154.5 Z"/></g>
<g><path style="opacity:1" fill="#00c7e0" d="M 252.5,248.5 C 276.397,278.613 300.064,308.947 323.5,339.5C 317.915,348.424 311.915,357.091 305.5,365.5C 283.197,337.687 261.03,309.687 239,281.5C 236.843,279.183 235.343,276.516 234.5,273.5C 239.777,264.599 245.777,256.266 252.5,248.5 Z"/></g>
<g><path style="opacity:1" fill="#00c1e1" d="M 234.5,273.5 C 235.343,276.516 236.843,279.183 239,281.5C 261.03,309.687 283.197,337.687 305.5,365.5C 281.079,399.246 257.079,433.246 233.5,467.5C 210.482,439.307 187.982,410.64 166,381.5C 164.629,379.959 163.129,378.625 161.5,377.5C 185.087,342.256 209.421,307.59 234.5,273.5 Z"/></g>
<g><path style="opacity:1" fill="#00bae1" d="M 161.5,377.5 C 163.129,378.625 164.629,379.959 166,381.5C 187.982,410.64 210.482,439.307 233.5,467.5C 216.738,492.922 200.404,518.588 184.5,544.5C 182.871,543.375 181.371,542.041 180,540.5C 157.26,511.272 134.76,481.939 112.5,452.5C 128.09,426.979 144.423,401.979 161.5,377.5 Z"/></g>
<g><path style="opacity:1" fill="#00bae6" d="M 112.5,452.5 C 134.76,481.939 157.26,511.272 180,540.5C 181.371,542.041 182.871,543.375 184.5,544.5C 179.003,555.498 173.003,566.165 166.5,576.5C 142.864,546.686 119.364,516.686 96,486.5C 95.1841,485.177 94.0174,484.511 92.5,484.5C 98.6801,473.461 105.347,462.794 112.5,452.5 Z"/></g>
<g><path style="opacity:1" fill="#00b5e7" d="M 92.5,484.5 C 94.0174,484.511 95.1841,485.177 96,486.5C 119.364,516.686 142.864,546.686 166.5,576.5C 144.839,617.483 128.506,660.483 117.5,705.5C 116.778,705.918 116.278,706.584 116,707.5C 89.7155,672.881 63.0488,638.547 36,604.5C 35.5172,603.552 35.3505,602.552 35.5,601.5C 51.0435,560.748 70.0435,521.748 92.5,484.5 Z"/></g>
<g><path style="opacity:1" fill="#00ced4" d="M 781.5,557.5 C 783.017,557.511 784.184,558.177 785,559.5C 842.285,633.786 899.951,707.786 958,781.5C 958.176,785.688 958.676,789.688 959.5,793.5C 959.5,802.833 959.5,812.167 959.5,821.5C 958.662,821.842 958.328,822.508 958.5,823.5C 915.167,768.5 871.833,713.5 828.5,658.5C 815.734,623.562 800.068,589.895 781.5,557.5 Z"/></g>
<g><path style="opacity:1" fill="#00afe7" d="M 35.5,601.5 C 35.3505,602.552 35.5172,603.552 36,604.5C 63.0488,638.547 89.7155,672.881 116,707.5C 116.278,706.584 116.778,705.918 117.5,705.5C 112.202,730.551 109.535,755.884 109.5,781.5C 107.895,777.643 105.729,773.976 103,770.5C 74.3029,733.647 45.4696,696.98 16.5,660.5C 21.0567,640.166 27.39,620.5 35.5,601.5 Z"/></g>
<g><path style="opacity:1" fill="#00ceda" d="M 828.5,658.5 C 871.833,713.5 915.167,768.5 958.5,823.5C 956.076,865.626 947.41,906.293 932.5,945.5C 932.291,944.078 931.791,942.745 931,941.5C 903.388,905.916 875.555,870.582 847.5,835.5C 854.257,775.211 847.924,716.211 828.5,658.5 Z"/></g>
<g><path style="opacity:1" fill="#00aeed" d="M 16.5,660.5 C 45.4696,696.98 74.3029,733.647 103,770.5C 105.729,773.976 107.895,777.643 109.5,781.5C 106.939,883.503 142.272,969.67 215.5,1040C 263.036,1081.6 317.703,1109.77 379.5,1124.5C 409.379,1164.06 439.879,1203.73 471,1243.5C 472.948,1244.11 474.782,1244.78 476.5,1245.5C 474.5,1245.5 472.5,1245.5 470.5,1245.5C 427.901,1244.46 385.901,1238.46 344.5,1227.5C 229.972,1079.77 114.972,932.432 -0.5,785.5C -0.5,776.167 -0.5,766.833 -0.5,757.5C 2.0341,724.629 7.70077,692.296 16.5,660.5 Z"/></g>
<g><path style="opacity:1" fill="#00a8ed" d="M -0.5,785.5 C 114.972,932.432 229.972,1079.77 344.5,1227.5C 225.318,1196.08 132.152,1129.08 65,1026.5C 26.5886,963.433 4.75523,895.1 -0.5,821.5C -0.5,809.5 -0.5,797.5 -0.5,785.5 Z"/></g>
<g><path style="opacity:1" fill="#00c8da" d="M 847.5,835.5 C 875.555,870.582 903.388,905.916 931,941.5C 931.791,942.745 932.291,944.078 932.5,945.5C 922.479,975.208 908.979,1003.21 892,1029.5C 887.39,1036.41 882.557,1043.08 877.5,1049.5C 853.791,1019.79 830.458,989.792 807.5,959.5C 828.247,920.591 841.58,879.258 847.5,835.5 Z"/></g>
<g><path style="opacity:1" fill="#00c8e1" d="M 807.5,959.5 C 830.458,989.792 853.791,1019.79 877.5,1049.5C 871.975,1059.03 865.308,1067.69 857.5,1075.5C 836.593,1048.05 815.426,1020.71 794,993.5C 792.121,991.473 790.954,989.14 790.5,986.5C 796.431,977.632 802.097,968.632 807.5,959.5 Z"/></g>
<g><path style="opacity:1" fill="#00c1e1" d="M 790.5,986.5 C 790.954,989.14 792.121,991.473 794,993.5C 815.426,1020.71 836.593,1048.05 857.5,1075.5C 831.885,1107.12 802.218,1134.12 768.5,1156.5C 747.241,1127.9 725.574,1099.57 703.5,1071.5C 737.417,1048.25 766.417,1019.92 790.5,986.5 Z"/></g>
<g><path style="opacity:1" fill="#00bbe1" d="M 703.5,1071.5 C 725.574,1099.57 747.241,1127.9 768.5,1156.5C 745.302,1173.61 720.302,1187.94 693.5,1199.5C 670.809,1169.81 648.143,1140.15 625.5,1110.5C 652.921,1100.12 678.921,1087.12 703.5,1071.5 Z"/></g>
<g><path style="opacity:1" fill="#00bae6" d="M 625.5,1110.5 C 648.143,1140.15 670.809,1169.81 693.5,1199.5C 683.147,1204.62 672.481,1208.95 661.5,1212.5C 638.075,1181.99 614.408,1151.65 590.5,1121.5C 602.212,1118.04 613.879,1114.37 625.5,1110.5 Z"/></g>
<g><path style="opacity:1" fill="#00b5e7" d="M 590.5,1121.5 C 614.408,1151.65 638.075,1181.99 661.5,1212.5C 619.976,1228.3 576.976,1238.3 532.5,1242.5C 506.288,1207.44 479.455,1172.78 452,1138.5C 451.209,1137.26 450.709,1135.92 450.5,1134.5C 497.824,1137.11 544.491,1132.78 590.5,1121.5 Z"/></g>
<g><path style="opacity:1" fill="#00afe7" d="M 379.5,1124.5 C 402.985,1129.14 426.652,1132.47 450.5,1134.5C 450.709,1135.92 451.209,1137.26 452,1138.5C 479.455,1172.78 506.288,1207.44 532.5,1242.5C 517.698,1243.71 503.032,1244.71 488.5,1245.5C 484.5,1245.5 480.5,1245.5 476.5,1245.5C 474.782,1244.78 472.948,1244.11 471,1243.5C 439.879,1203.73 409.379,1164.06 379.5,1124.5 Z"/></g>
</svg>
