<svg xmlns="http://www.w3.org/2000/svg" viewBox="79 58 97 139" fill="currentColor">
	<path d="M106.5 105.5C105.842 104.602 105.176 103.602 104.5 102.5C103.808 103.025 103.308 103.692 103 104.5C100.811 113.334 101.311 122 104.5 130.5C104.631 131.239 104.464 131.906 104 132.5C102.122 133.053 100.622 134.053 99.5 135.5C97.5331 134.368 95.6998 134.701 94 136.5C93.6667 135.833 93.3333 135.167 93 134.5C92.4882 137.459 90.8216 140.125 88 142.5C87.51 143.793 87.3433 145.127 87.5 146.5C84.042 149.263 81.2087 148.596 79 144.5C78.3333 126.167 78.3333 107.833 79 89.5C83.575 72.5923 94.4084 62.0923 111.5 58C121.167 57.3333 130.833 57.3333 140.5 58C146.75 59.1945 152.75 61.1945 158.5 64C162.125 66.2063 163.292 69.373 162 73.5C158.167 78.6667 153.667 83.1667 148.5 87C146.5 87.6667 144.5 87.6667 142.5 87C140.33 85.4138 137.996 84.0804 135.5 83C116.637 78.6995 106.97 86.1995 106.5 105.5Z"/>
	<path d="M97.5 190.5C97.9382 190.565 98.2716 190.399 98.5 190C96.1885 187.265 94.8552 184.099 94.5 180.5C95.7573 177.573 97.7573 175.239 100.5 173.5C100.833 174.833 101.167 174.833 101.5 173.5C106.203 174.377 110.203 173.043 113.5 169.5C120.516 172.401 127.85 173.234 135.5 172C141.915 169.685 145.915 165.185 147.5 158.5C151.038 154.241 153.038 149.241 153.5 143.5C153.56 139.244 151.56 136.91 147.5 136.5C147.335 132.818 147.501 129.152 148 125.5C154.167 119.333 160.333 113.167 166.5 107C170.18 105.973 173.347 106.806 176 109.5C176.667 127.167 176.667 144.833 176 162.5C172.267 182.899 160.101 194.399 139.5 197C130.833 197.667 122.167 197.667 113.5 197C107.457 196.271 102.123 194.104 97.5 190.5Z"/>
</svg>
