<?xml version="1.0" encoding="UTF-8"?>
<!DOCTYPE svg PUBLIC "-//W3C//DTD SVG 1.1//EN" "http://www.w3.org/Graphics/SVG/1.1/DTD/svg11.dtd">
<svg xmlns="http://www.w3.org/2000/svg" version="1.1" width="436px" height="267px" style="shape-rendering:geometricPrecision; text-rendering:geometricPrecision; image-rendering:optimizeQuality; fill-rule:evenodd; clip-rule:evenodd" xmlns:xlink="http://www.w3.org/1999/xlink">
<g><path style="opacity:1" fill="#c2ebec" d="M 123.5,5.5 C 128.65,4.34926 133.984,4.18259 139.5,5C 144.939,5.43763 149.939,6.93763 154.5,9.5C 144.404,6.48653 134.07,5.1532 123.5,5.5 Z"/></g>
<g><path style="opacity:1" fill="#b9e9e9" d="M 294.5,5.5 C 291.411,6.78457 288.078,7.45123 284.5,7.5C 287.544,5.98864 290.878,5.32198 294.5,5.5 Z"/></g>
<g><path style="opacity:1" fill="#11bbbb" d="M 123.5,5.5 C 134.07,5.1532 144.404,6.48653 154.5,9.5C 155.78,10.9313 157.447,11.5979 159.5,11.5C 168.239,14.9064 175.572,20.2397 181.5,27.5C 183.167,31.1667 185.833,33.8333 189.5,35.5C 191.194,36.5274 192.527,37.8608 193.5,39.5C 193.833,41.8333 195.167,43.1667 197.5,43.5C 198.957,45.6282 199.957,47.9616 200.5,50.5C 197.833,53.8333 194.833,56.8333 191.5,59.5C 188.769,58.6261 186.602,59.6261 185,62.5C 184.517,63.448 184.351,64.448 184.5,65.5C 180.981,66.0128 178.647,68.0128 177.5,71.5C 176.583,70.8728 175.583,70.5394 174.5,70.5C 172.833,69.5 171.5,68.1667 170.5,66.5C 170.5,64.5 169.5,63.5 167.5,63.5C 165.833,62.5 164.5,61.1667 163.5,59.5C 163.019,56.6027 161.352,54.9361 158.5,54.5C 157.829,53.1529 157.829,51.9862 158.5,51C 156.713,49.6813 154.713,48.848 152.5,48.5C 152.628,46.3453 152.128,44.3453 151,42.5C 150.612,43.428 149.945,44.0946 149,44.5C 136.287,35.9562 123.453,36.7895 110.5,47C 110.833,47.3333 111.167,47.6667 111.5,48C 107.651,49.2237 105.318,51.7237 104.5,55.5C 95.5,65.1667 86.1667,74.5 76.5,83.5C 75.448,83.3505 74.448,83.5172 73.5,84C 71.8258,85.5059 70.8258,87.3393 70.5,89.5C 67.6848,90.2289 65.6848,91.2289 64.5,92.5C 64.5,93.8333 64.5,95.1667 64.5,96.5C 63.7377,98.2624 62.4044,99.2624 60.5,99.5C 59.5,99.5 58.5,99.5 57.5,99.5C 57.5,100.5 57.5,101.5 57.5,102.5C 56.5,102.5 55.5,102.5 54.5,102.5C 54.5,103.5 54.5,104.5 54.5,105.5C 53.448,105.351 52.448,105.517 51.5,106C 52.2524,106.671 52.5858,107.504 52.5,108.5C 50.4017,107.086 49.4017,107.752 49.5,110.5C 46.0897,110.384 44.7564,112.05 45.5,115.5C 44.5,115.5 43.5,115.5 42.5,115.5C 42.5,117.167 42.5,118.833 42.5,120.5C 42.6716,121.492 42.3382,122.158 41.5,122.5C 40.207,123.842 39.3736,125.509 39,127.5C 38.1864,132.02 38.353,136.354 39.5,140.5C 39.2594,142.898 39.9261,144.898 41.5,146.5C 42.6737,147.514 43.3404,148.847 43.5,150.5C 43.7376,152.404 44.7376,153.738 46.5,154.5C 47.0798,156.749 48.4131,158.415 50.5,159.5C 52.5,161.167 54.5,162.833 56.5,164.5C 61.8333,171.833 68.1667,178.167 75.5,183.5C 75.9598,188.447 78.6265,191.114 83.5,191.5C 91.8333,199.167 99.8333,207.167 107.5,215.5C 107.973,216.906 108.973,217.573 110.5,217.5C 111.845,221.107 114.512,222.774 118.5,222.5C 119.78,223.931 121.447,224.598 123.5,224.5C 126.017,225.973 128.85,226.64 132,226.5C 134.033,226.494 135.866,226.161 137.5,225.5C 138.568,224.566 139.901,224.232 141.5,224.5C 143.553,224.598 145.22,223.931 146.5,222.5C 148.989,222.759 150.656,221.759 151.5,219.5C 153.027,219.573 154.027,218.906 154.5,217.5C 154.5,216.833 154.833,216.5 155.5,216.5C 158.189,215.811 159.856,214.144 160.5,211.5C 166.5,207.5 171.5,202.5 175.5,196.5C 180.5,190.833 185.833,185.5 191.5,180.5C 195.234,177.769 198.234,174.436 200.5,170.5C 205.167,165.167 210.167,160.167 215.5,155.5C 217.167,154.5 218.5,153.167 219.5,151.5C 224.894,147.108 229.561,142.108 233.5,136.5C 234.497,136.53 235.164,136.03 235.5,135C 234.331,129.844 234.331,124.677 235.5,119.5C 236.674,118.486 237.34,117.153 237.5,115.5C 237.738,113.596 238.738,112.262 240.5,111.5C 242.749,110.92 244.415,109.587 245.5,107.5C 247.027,107.573 248.027,106.906 248.5,105.5C 249.568,104.566 250.901,104.232 252.5,104.5C 257.537,104.413 262.537,104.746 267.5,105.5C 270.704,106.383 273.371,108.05 275.5,110.5C 276.08,112.749 277.413,114.415 279.5,115.5C 279.427,117.027 280.094,118.027 281.5,118.5C 281.595,120.786 282.262,122.786 283.5,124.5C 283.587,129.537 283.254,134.537 282.5,139.5C 282.291,140.922 281.791,142.255 281,143.5C 257.299,167.368 233.465,191.035 209.5,214.5C 207.777,213.928 206.277,213.928 205,214.5C 204.667,215.5 204.333,216.5 204,217.5C 203.667,217.167 203.333,216.833 203,216.5C 202.506,218.134 202.34,219.801 202.5,221.5C 199.167,225.5 195.5,229.167 191.5,232.5C 190.542,232.047 189.708,231.381 189,230.5C 188.517,231.448 188.351,232.448 188.5,233.5C 187.448,233.351 186.448,233.517 185.5,234C 186.337,235.011 186.67,236.178 186.5,237.5C 179.683,245 172.017,250.666 163.5,254.5C 162.508,254.328 161.842,254.662 161.5,255.5C 159.771,256.117 158.271,257.117 157,258.5C 156.667,258.167 156.333,257.833 156,257.5C 152.667,258.833 149.333,260.167 146,261.5C 137.037,261.609 127.871,261.442 118.5,261C 116.753,260.648 115.086,260.148 113.5,259.5C 112.07,258.463 110.403,257.796 108.5,257.5C 108.167,257.5 107.833,257.5 107.5,257.5C 106.486,256.326 105.153,255.66 103.5,255.5C 100.558,254.696 97.8911,253.362 95.5,251.5C 94.7095,250.599 93.7095,249.932 92.5,249.5C 92.0269,248.094 91.0269,247.427 89.5,247.5C 65.1959,224.863 41.5292,201.53 18.5,177.5C 18.1436,175.81 17.1436,174.81 15.5,174.5C 15.5,174.167 15.5,173.833 15.5,173.5C 15.1667,172.5 14.5,171.833 13.5,171.5C 11.5358,167.734 9.2025,164.234 6.5,161C 7.25244,160.329 7.58577,159.496 7.5,158.5C 7.20414,156.597 6.53747,154.93 5.5,153.5C 4.03699,150.797 3.20366,147.797 3,144.5C 2.20548,137.42 2.37215,130.42 3.5,123.5C 4.7682,121.095 5.43487,118.428 5.5,115.5C 7.5848,113.316 8.5848,110.649 8.5,107.5C 8.99249,105.181 9.99249,103.181 11.5,101.5C 12.4013,100.71 13.0679,99.7095 13.5,98.5C 13.7376,96.5956 14.7376,95.2623 16.5,94.5C 17.9063,94.0269 18.573,93.0269 18.5,91.5C 22.4729,86.8604 26.8062,82.5271 31.5,78.5C 33.1667,77.5 34.5,76.1667 35.5,74.5C 36.8333,73.8333 37.8333,72.8333 38.5,71.5C 41.8333,67.5 45.5,63.8333 49.5,60.5C 59.8664,51.1343 69.5331,41.1343 78.5,30.5C 83.1256,27.5422 87.1256,23.8755 90.5,19.5C 92.0269,19.573 93.0269,18.9063 93.5,17.5C 93.9731,16.0937 94.9731,15.427 96.5,15.5C 98.8477,15.4077 100.514,14.4077 101.5,12.5C 103.426,10.7073 105.759,9.70732 108.5,9.5C 112.048,8.86993 115.381,7.86993 118.5,6.5C 119.919,5.54885 121.585,5.21552 123.5,5.5 Z"/></g>
<g><path style="opacity:1" fill="#0dbabb" d="M 294.5,5.5 C 304.763,5.06155 314.763,6.39489 324.5,9.5C 324.389,10.1174 324.056,10.6174 323.5,11C 327.538,12.3494 330.871,14.0161 333.5,16C 333.167,16.3333 332.833,16.6667 332.5,17C 334.454,16.5469 336.287,16.3802 338,16.5C 342.797,21.6628 347.964,26.4962 353.5,31C 353.167,31.3333 352.833,31.6667 352.5,32C 353.833,32.6667 355.167,33.3333 356.5,34C 362.756,40.762 369.423,46.9287 376.5,52.5C 377.167,52.5 377.833,52.5 378.5,52.5C 379.833,55.8333 382.167,58.1667 385.5,59.5C 385.5,61.5 386.5,62.5 388.5,62.5C 389.167,65.1667 390.833,66.8333 393.5,67.5C 395.167,68.5 396.5,69.8333 397.5,71.5C 398.025,76.9363 401.025,79.9363 406.5,80.5C 406.343,81.8734 406.51,83.2068 407,84.5C 417.371,93.3192 424.037,103.986 427,116.5C 427.708,117.381 428.542,118.047 429.5,118.5C 429.875,120.698 430.542,122.698 431.5,124.5C 431.5,124.833 431.5,125.167 431.5,125.5C 431.77,134.582 431.103,143.582 429.5,152.5C 429.405,154.786 428.738,156.786 427.5,158.5C 426.069,159.78 425.402,161.447 425.5,163.5C 424.921,166.331 423.588,168.664 421.5,170.5C 420.883,170.389 420.383,170.056 420,169.5C 418.218,172.412 416.718,175.412 415.5,178.5C 414.07,178.421 412.736,178.754 411.5,179.5C 410.079,182.248 407.745,184.748 404.5,187C 404.833,187.333 405.167,187.667 405.5,188C 404.552,188.483 403.552,188.649 402.5,188.5C 402.5,189.5 402.5,190.5 402.5,191.5C 401.448,191.351 400.448,191.517 399.5,192C 400.252,192.671 400.586,193.504 400.5,194.5C 386.167,208.5 371.833,222.5 357.5,236.5C 356.749,235.427 355.749,235.26 354.5,236C 354.833,236.333 355.167,236.667 355.5,237C 352.302,239.967 349.302,242.467 346.5,244.5C 345.571,245.689 345.238,247.022 345.5,248.5C 345.167,248.5 344.833,248.5 344.5,248.5C 343.127,248.343 341.793,248.51 340.5,249C 340.833,249.333 341.167,249.667 341.5,250C 338.182,249.825 336.182,251.325 335.5,254.5C 323.61,261.148 310.944,263.481 297.5,261.5C 296.432,260.566 295.099,260.232 293.5,260.5C 284.011,259.373 275.011,255.873 266.5,250C 263.712,248.281 261.379,246.115 259.5,243.5C 258.5,241.833 257.167,240.5 255.5,239.5C 248.221,232.887 241.221,225.887 234.5,218.5C 235.183,216.824 236.517,216.157 238.5,216.5C 238.5,215.167 238.5,213.833 238.5,212.5C 244.194,206.14 250.194,200.14 256.5,194.5C 257.833,193.167 259.167,193.167 260.5,194.5C 263.823,196.824 266.823,199.491 269.5,202.5C 271.167,206.167 273.833,208.833 277.5,210.5C 280.5,212.833 283.167,215.5 285.5,218.5C 285.973,219.906 286.973,220.573 288.5,220.5C 291.768,223.707 295.768,225.373 300.5,225.5C 303.64,226.641 306.973,226.808 310.5,226C 312.852,225.76 314.852,224.927 316.5,223.5C 318.38,223.771 319.713,223.104 320.5,221.5C 321.609,221.443 322.609,221.11 323.5,220.5C 326.491,219.903 329.157,218.57 331.5,216.5C 333.777,213.601 336.277,210.934 339,208.5C 339.333,208.833 339.667,209.167 340,209.5C 340.559,207.14 341.892,204.807 344,202.5C 345.579,200.959 347.413,199.792 349.5,199C 349.167,198.667 348.833,198.333 348.5,198C 352.215,194.457 356.048,190.957 360,187.5C 360.655,185.372 361.489,183.372 362.5,181.5C 364.167,180.5 365.5,179.167 366.5,177.5C 366.5,176.833 366.833,176.5 367.5,176.5C 370.833,173.833 373.833,170.833 376.5,167.5C 377.833,165.5 379.5,163.833 381.5,162.5C 384.573,160.431 386.906,157.764 388.5,154.5C 389.906,154.027 390.573,153.027 390.5,151.5C 391.89,150.101 392.89,148.434 393.5,146.5C 395.13,144.974 395.963,142.974 396,140.5C 396.81,136.642 396.643,132.976 395.5,129.5C 395.59,126.848 394.924,124.515 393.5,122.5C 393.34,120.847 392.674,119.514 391.5,118.5C 391.573,116.973 390.906,115.973 389.5,115.5C 388.811,112.811 387.144,111.144 384.5,110.5C 384.167,109.833 383.833,109.167 383.5,108.5C 383.027,107.094 382.027,106.427 380.5,106.5C 379.5,105.167 378.5,103.833 377.5,102.5C 376.833,101.167 375.833,100.167 374.5,99.5C 373.5,99.1667 372.833,98.5 372.5,97.5C 371.829,96.1529 371.829,94.9862 372.5,94C 363.794,86.828 355.794,78.9947 348.5,70.5C 347.264,69.7542 345.93,69.4208 344.5,69.5C 340.5,66.1667 336.833,62.5 333.5,58.5C 333.167,57.5 332.5,56.8333 331.5,56.5C 329.167,54.8333 327.167,52.8333 325.5,50.5C 324.738,48.7376 323.404,47.7376 321.5,47.5C 321.027,46.0937 320.027,45.427 318.5,45.5C 316.847,45.3404 315.514,44.6737 314.5,43.5C 310.931,41.2741 306.931,40.2741 302.5,40.5C 299.186,40.3425 296.186,41.0092 293.5,42.5C 292.791,43.404 291.791,43.7373 290.5,43.5C 287.68,43.087 285.68,44.087 284.5,46.5C 282.164,45.5375 280.83,46.5375 280.5,49.5C 276.833,53.8333 272.833,57.8333 268.5,61.5C 263.249,63.8246 258.416,67.4912 254,72.5C 253.51,73.7932 253.343,75.1266 253.5,76.5C 245.167,85.5 236.5,94.1667 227.5,102.5C 224.813,103.336 222.48,104.836 220.5,107C 220.833,107.333 221.167,107.667 221.5,108C 220.552,108.483 219.552,108.649 218.5,108.5C 218.5,109.833 218.5,111.167 218.5,112.5C 214.833,116.833 210.833,120.833 206.5,124.5C 206.44,123.957 206.107,123.624 205.5,123.5C 204.614,124.325 204.281,125.325 204.5,126.5C 201.043,126.96 199.377,128.96 199.5,132.5C 198.686,134.631 198.186,136.964 198,139.5C 197.667,138.5 197.333,137.5 197,136.5C 197.038,140.769 195.871,144.602 193.5,148C 193.833,148.333 194.167,148.667 194.5,149C 191.033,150.672 188.7,153.172 187.5,156.5C 186.778,156.918 186.278,157.584 186,158.5C 181.701,158.542 177.201,158.375 172.5,158C 170.942,157.79 169.609,157.29 168.5,156.5C 168.027,155.094 167.027,154.427 165.5,154.5C 164.833,154.5 164.5,154.167 164.5,153.5C 164.167,149.833 162.167,147.833 158.5,147.5C 156.528,144.916 155.528,141.916 155.5,138.5C 155.395,134.452 155.728,130.452 156.5,126.5C 156.402,124.447 157.069,122.78 158.5,121.5C 159.906,121.027 160.573,120.027 160.5,118.5C 163.5,114.833 166.833,111.5 170.5,108.5C 176.833,104.167 182.167,98.8333 186.5,92.5C 188.833,89.5 191.5,86.8333 194.5,84.5C 208.721,71.7829 222.554,58.4496 236,44.5C 236.464,43.9056 236.631,43.2389 236.5,42.5C 236.833,41.5 237.5,40.8333 238.5,40.5C 241.5,39.5 243.5,37.5 244.5,34.5C 247.866,33.8007 249.866,31.8007 250.5,28.5C 251.5,26.8333 252.833,25.5 254.5,24.5C 257.089,23.5806 259.089,21.914 260.5,19.5C 261.262,17.7376 262.596,16.7376 264.5,16.5C 266.027,16.573 267.027,15.9063 267.5,14.5C 267.842,13.6618 268.508,13.3284 269.5,13.5C 273.165,13.4982 276.165,12.1648 278.5,9.5C 280.786,9.40505 282.786,8.73838 284.5,7.5C 288.078,7.45123 291.411,6.78457 294.5,5.5 Z"/></g>
<g><path style="opacity:1" fill="#bdeaea" d="M 118.5,6.5 C 115.381,7.86993 112.048,8.86993 108.5,9.5C 111.381,7.32003 114.714,6.32003 118.5,6.5 Z"/></g>
<g><path style="opacity:1" fill="#bfebeb" d="M 284.5,7.5 C 282.786,8.73838 280.786,9.40505 278.5,9.5C 280.102,7.92606 282.102,7.25939 284.5,7.5 Z"/></g>
<g><path style="opacity:1" fill="#c4ecec" d="M 294.5,5.5 C 301.7,4.29491 309.033,4.46158 316.5,6C 320.86,6.83803 324.86,8.33803 328.5,10.5C 327.041,10.5674 325.708,10.2341 324.5,9.5C 314.763,6.39489 304.763,5.06155 294.5,5.5 Z"/></g>
<g><path style="opacity:1" fill="#c3ebea" d="M 154.5,9.5 C 156.553,9.40206 158.22,10.0687 159.5,11.5C 157.447,11.5979 155.78,10.9313 154.5,9.5 Z"/></g>
<g><path style="opacity:1" fill="#6fcbcd" d="M 278.5,9.5 C 276.165,12.1648 273.165,13.4982 269.5,13.5C 272.088,11.3754 275.088,10.0421 278.5,9.5 Z"/></g>
<g><path style="opacity:1" fill="#98dbda" d="M 101.5,12.5 C 100.514,14.4077 98.8477,15.4077 96.5,15.5C 97.6594,13.7497 99.326,12.7497 101.5,12.5 Z"/></g>
<g><path style="opacity:1" fill="#a8e2e1" d="M 267.5,14.5 C 267.027,15.9063 266.027,16.573 264.5,16.5C 264.973,15.0937 265.973,14.427 267.5,14.5 Z"/></g>
<g><path style="opacity:1" fill="#a0e2e1" d="M 93.5,17.5 C 93.0269,18.9063 92.0269,19.573 90.5,19.5C 90.9731,18.0937 91.9731,17.427 93.5,17.5 Z"/></g>
<g><path style="opacity:1" fill="#d3f0ee" d="M 342.5,18.5 C 344.027,18.427 345.027,19.0937 345.5,20.5C 343.973,20.573 342.973,19.9063 342.5,18.5 Z"/></g>
<g><path style="opacity:1" fill="#8ddcdb" d="M 260.5,19.5 C 259.089,21.914 257.089,23.5806 254.5,24.5C 255.911,22.086 257.911,20.4194 260.5,19.5 Z"/></g>
<g><path style="opacity:1" fill="#c7eaea" d="M 349.5,23.5 C 353.566,26.5628 356.899,30.2294 359.5,34.5C 355.434,31.4372 352.101,27.7706 349.5,23.5 Z"/></g>
<g><path style="opacity:1" fill="#9bdedf" d="M 90.5,19.5 C 87.1256,23.8755 83.1256,27.5422 78.5,30.5C 81.8483,26.1529 85.8483,22.4863 90.5,19.5 Z"/></g>
<g><path style="opacity:1" fill="#b8e7e7" d="M 181.5,27.5 C 184.5,29.8333 187.167,32.5 189.5,35.5C 185.833,33.8333 183.167,31.1667 181.5,27.5 Z"/></g>
<g><path style="opacity:1" fill="#74cece" d="M 250.5,28.5 C 249.866,31.8007 247.866,33.8007 244.5,34.5C 246.167,32.1667 248.167,30.1667 250.5,28.5 Z"/></g>
<g><path style="opacity:1" fill="#87d7d7" d="M 244.5,34.5 C 243.5,37.5 241.5,39.5 238.5,40.5C 240.167,38.1667 242.167,36.1667 244.5,34.5 Z"/></g>
<g><path style="opacity:1" fill="#43bcbf" d="M 152.5,48.5 C 148.927,46.2155 145.26,44.2155 141.5,42.5C 140.737,41.7321 139.737,41.2321 138.5,41C 134.5,40.3333 130.5,40.3333 126.5,41C 123.334,41.3221 120.667,42.4887 118.5,44.5C 118.158,45.3382 117.492,45.6716 116.5,45.5C 114.973,45.427 113.973,46.0937 113.5,47.5C 110.526,50.1379 107.526,52.8046 104.5,55.5C 105.318,51.7237 107.651,49.2237 111.5,48C 111.167,47.6667 110.833,47.3333 110.5,47C 123.453,36.7895 136.287,35.9562 149,44.5C 149.945,44.0946 150.612,43.428 151,42.5C 152.128,44.3453 152.628,46.3453 152.5,48.5 Z"/></g>
<g><path style="opacity:1" fill="#bfeaea" d="M 141.5,42.5 C 137.818,41.8664 134.151,41.533 130.5,41.5C 126.403,42.1908 122.403,43.1908 118.5,44.5C 120.667,42.4887 123.334,41.3221 126.5,41C 130.5,40.3333 134.5,40.3333 138.5,41C 139.737,41.2321 140.737,41.7321 141.5,42.5 Z"/></g>
<g><path style="opacity:1" fill="#c6eae9" d="M 193.5,39.5 C 195.167,40.5 196.5,41.8333 197.5,43.5C 195.167,43.1667 193.833,41.8333 193.5,39.5 Z"/></g>
<g><path style="opacity:1" fill="#b9e8e9" d="M 314.5,43.5 C 307.558,41.5894 300.558,41.256 293.5,42.5C 296.186,41.0092 299.186,40.3425 302.5,40.5C 306.931,40.2741 310.931,41.2741 314.5,43.5 Z"/></g>
<g><path style="opacity:1" fill="#3dbabc" d="M 324.5,9.5 C 325.708,10.2341 327.041,10.5674 328.5,10.5C 333.827,12.1588 338.493,14.8255 342.5,18.5C 342.973,19.9063 343.973,20.573 345.5,20.5C 346.833,21.5 348.167,22.5 349.5,23.5C 352.101,27.7706 355.434,31.4372 359.5,34.5C 361.456,36.1139 363.456,37.7806 365.5,39.5C 367.833,43.8333 371.167,47.1667 375.5,49.5C 375.557,50.609 375.89,51.609 376.5,52.5C 369.423,46.9287 362.756,40.762 356.5,34C 355.167,33.3333 353.833,32.6667 352.5,32C 352.833,31.6667 353.167,31.3333 353.5,31C 347.964,26.4962 342.797,21.6628 338,16.5C 336.287,16.3802 334.454,16.5469 332.5,17C 332.833,16.6667 333.167,16.3333 333.5,16C 330.871,14.0161 327.538,12.3494 323.5,11C 324.056,10.6174 324.389,10.1174 324.5,9.5 Z"/></g>
<g><path style="opacity:1" fill="#c6ebea" d="M 365.5,39.5 C 369.167,42.5 372.5,45.8333 375.5,49.5C 371.167,47.1667 367.833,43.8333 365.5,39.5 Z"/></g>
<g><path style="opacity:1" fill="#b3e5e4" d="M 78.5,30.5 C 69.5331,41.1343 59.8664,51.1343 49.5,60.5C 58.4945,49.8391 68.1611,39.8391 78.5,30.5 Z"/></g>
<g><path style="opacity:1" fill="#92d7d8" d="M 290.5,43.5 C 288.819,45.0075 286.819,46.0075 284.5,46.5C 285.68,44.087 287.68,43.087 290.5,43.5 Z"/></g>
<g><path style="opacity:1" fill="#b9e9e8" d="M 197.5,43.5 C 199.479,44.8121 201.145,46.4788 202.5,48.5C 202.145,49.5223 201.478,50.189 200.5,50.5C 199.957,47.9616 198.957,45.6282 197.5,43.5 Z"/></g>
<g><path style="opacity:1" fill="#dbf3f2" d="M 116.5,45.5 C 116.027,46.9063 115.027,47.573 113.5,47.5C 113.973,46.0937 114.973,45.427 116.5,45.5 Z"/></g>
<g><path style="opacity:1" fill="#84cfd2" d="M 284.5,46.5 C 283.738,48.2624 282.404,49.2624 280.5,49.5C 280.83,46.5375 282.164,45.5375 284.5,46.5 Z"/></g>
<g><path style="opacity:1" fill="#d5f1f1" d="M 318.5,45.5 C 320.027,45.427 321.027,46.0937 321.5,47.5C 319.973,47.573 318.973,46.9063 318.5,45.5 Z"/></g>
<g><path style="opacity:1" fill="#c9ecec" d="M 321.5,47.5 C 323.404,47.7376 324.738,48.7376 325.5,50.5C 323.596,50.2624 322.262,49.2624 321.5,47.5 Z"/></g>
<g><path style="opacity:1" fill="#83d1d2" d="M 152.5,48.5 C 154.713,48.848 156.713,49.6813 158.5,51C 157.829,51.9862 157.829,53.1529 158.5,54.5C 156.167,52.8333 154.167,50.8333 152.5,48.5 Z"/></g>
<g><path style="opacity:1" fill="#bceae9" d="M 375.5,49.5 C 376.833,50.1667 377.833,51.1667 378.5,52.5C 377.833,52.5 377.167,52.5 376.5,52.5C 375.89,51.609 375.557,50.609 375.5,49.5 Z"/></g>
<g><path style="opacity:1" fill="#aee6e6" d="M 378.5,52.5 C 381.167,54.5 383.5,56.8333 385.5,59.5C 382.167,58.1667 379.833,55.8333 378.5,52.5 Z"/></g>
<g><path style="opacity:1" fill="#99d8d8" d="M 158.5,54.5 C 161.352,54.9361 163.019,56.6027 163.5,59.5C 161.548,58.2153 159.882,56.5486 158.5,54.5 Z"/></g>
<g><path style="opacity:1" fill="#aae3e2" d="M 236.5,42.5 C 236.631,43.2389 236.464,43.9056 236,44.5C 222.554,58.4496 208.721,71.7829 194.5,84.5C 208.14,70.1937 222.14,56.1937 236.5,42.5 Z"/></g>
<g><path style="opacity:1" fill="#d5f0f0" d="M 331.5,56.5 C 332.5,56.8333 333.167,57.5 333.5,58.5C 332.167,58.5 331.5,57.8333 331.5,56.5 Z"/></g>
<g><path style="opacity:1" fill="#b4e7e6" d="M 385.5,59.5 C 386.833,60.1667 387.833,61.1667 388.5,62.5C 386.5,62.5 385.5,61.5 385.5,59.5 Z"/></g>
<g><path style="opacity:1" fill="#a1e2e2" d="M 167.5,63.5 C 169.5,63.5 170.5,64.5 170.5,66.5C 169.167,65.8333 168.167,64.8333 167.5,63.5 Z"/></g>
<g><path style="opacity:1" fill="#b3e7e6" d="M 388.5,62.5 C 390.5,63.8333 392.167,65.5 393.5,67.5C 390.833,66.8333 389.167,65.1667 388.5,62.5 Z"/></g>
<g><path style="opacity:1" fill="#79cece" d="M 191.5,59.5 C 187.158,65.0233 182.158,69.5233 176.5,73C 175.619,72.2917 174.953,71.4584 174.5,70.5C 175.583,70.5394 176.583,70.8728 177.5,71.5C 178.647,68.0128 180.981,66.0128 184.5,65.5C 184.351,64.448 184.517,63.448 185,62.5C 186.602,59.6261 188.769,58.6261 191.5,59.5 Z"/></g>
<g><path style="opacity:1" fill="#50c1c4" d="M 268.5,61.5 C 263.881,66.7852 258.881,71.7852 253.5,76.5C 253.343,75.1266 253.51,73.7932 254,72.5C 258.416,67.4912 263.249,63.8246 268.5,61.5 Z"/></g>
<g><path style="opacity:1" fill="#c2e9e9" d="M 38.5,71.5 C 37.8333,72.8333 36.8333,73.8333 35.5,74.5C 35.5,72.5 36.5,71.5 38.5,71.5 Z"/></g>
<g><path style="opacity:1" fill="#48bfc2" d="M 344.5,69.5 C 345.93,69.4208 347.264,69.7542 348.5,70.5C 355.794,78.9947 363.794,86.828 372.5,94C 371.829,94.9862 371.829,96.1529 372.5,97.5C 369.395,95.3064 366.728,92.6397 364.5,89.5C 364.167,88.5 363.5,87.8333 362.5,87.5C 361.5,87.1667 360.833,86.5 360.5,85.5C 360.167,84.5 359.5,83.8333 358.5,83.5C 357.5,83.1667 356.833,82.5 356.5,81.5C 356.167,80.5 355.5,79.8333 354.5,79.5C 350.785,76.4519 347.452,73.1185 344.5,69.5 Z"/></g>
<g><path style="opacity:1" fill="#c5eae9" d="M 35.5,74.5 C 34.5,76.1667 33.1667,77.5 31.5,78.5C 31.8333,76.1667 33.1667,74.8333 35.5,74.5 Z"/></g>
<g><path style="opacity:1" fill="#55c3c5" d="M 397.5,71.5 C 400.833,74.1667 403.833,77.1667 406.5,80.5C 401.025,79.9363 398.025,76.9363 397.5,71.5 Z"/></g>
<g><path style="opacity:1" fill="#d5f0f0" d="M 354.5,79.5 C 355.5,79.8333 356.167,80.5 356.5,81.5C 355.167,81.5 354.5,80.8333 354.5,79.5 Z"/></g>
<g><path style="opacity:1" fill="#d5f0f0" d="M 358.5,83.5 C 359.5,83.8333 360.167,84.5 360.5,85.5C 359.167,85.5 358.5,84.8333 358.5,83.5 Z"/></g>
<g><path style="opacity:1" fill="#e1f3f3" d="M 362.5,87.5 C 363.5,87.8333 364.167,88.5 364.5,89.5C 363.167,89.5 362.5,88.8333 362.5,87.5 Z"/></g>
<g><path style="opacity:1" fill="#41bcbe" d="M 406.5,80.5 C 409.5,82.8333 412.167,85.5 414.5,88.5C 415.08,90.7488 416.413,92.4154 418.5,93.5C 418.738,95.4044 419.738,96.7377 421.5,97.5C 422.674,98.5137 423.34,99.847 423.5,101.5C 423.992,103.819 424.992,105.819 426.5,107.5C 428.472,110.084 429.472,113.084 429.5,116.5C 429.5,117.167 429.5,117.833 429.5,118.5C 428.542,118.047 427.708,117.381 427,116.5C 424.037,103.986 417.371,93.3192 407,84.5C 406.51,83.2068 406.343,81.8734 406.5,80.5 Z"/></g>
<g><path style="opacity:1" fill="#b4e6e6" d="M 414.5,88.5 C 416.587,89.5846 417.92,91.2512 418.5,93.5C 416.413,92.4154 415.08,90.7488 414.5,88.5 Z"/></g>
<g><path style="opacity:1" fill="#b6e6e5" d="M 18.5,91.5 C 18.573,93.0269 17.9063,94.0269 16.5,94.5C 16.427,92.9731 17.0937,91.9731 18.5,91.5 Z"/></g>
<g><path style="opacity:1" fill="#7ecece" d="M 76.5,83.5 C 73.1983,88.4031 69.1983,92.7364 64.5,96.5C 64.5,95.1667 64.5,93.8333 64.5,92.5C 65.6848,91.2289 67.6848,90.2289 70.5,89.5C 70.8258,87.3393 71.8258,85.5059 73.5,84C 74.448,83.5172 75.448,83.3505 76.5,83.5 Z"/></g>
<g><path style="opacity:1" fill="#c5ebec" d="M 418.5,93.5 C 420.262,94.2623 421.262,95.5956 421.5,97.5C 419.738,96.7377 418.738,95.4044 418.5,93.5 Z"/></g>
<g><path style="opacity:1" fill="#e4f4f4" d="M 13.5,98.5 C 13.0679,99.7095 12.4013,100.71 11.5,101.5C 11.2852,99.8212 11.9519,98.8212 13.5,98.5 Z"/></g>
<g><path style="opacity:1" fill="#d5f0f0" d="M 374.5,99.5 C 375.833,100.167 376.833,101.167 377.5,102.5C 375.5,102.5 374.5,101.5 374.5,99.5 Z"/></g>
<g><path style="opacity:1" fill="#8fdbdb" d="M 186.5,92.5 C 182.167,98.8333 176.833,104.167 170.5,108.5C 175.5,102.833 180.833,97.5 186.5,92.5 Z"/></g>
<g><path style="opacity:1" fill="#8fd4d4" d="M 60.5,99.5 C 58.5698,103.1 55.9031,106.1 52.5,108.5C 52.5858,107.504 52.2524,106.671 51.5,106C 52.448,105.517 53.448,105.351 54.5,105.5C 54.5,104.5 54.5,103.5 54.5,102.5C 55.5,102.5 56.5,102.5 57.5,102.5C 57.5,101.5 57.5,100.5 57.5,99.5C 58.5,99.5 59.5,99.5 60.5,99.5 Z"/></g>
<g><path style="opacity:1" fill="#b4e8e8" d="M 252.5,104.5 C 254.304,103.838 256.304,103.505 258.5,103.5C 261.814,103.343 264.814,104.009 267.5,105.5C 262.537,104.746 257.537,104.413 252.5,104.5 Z"/></g>
<g><path style="opacity:1" fill="#d1f1f0" d="M 423.5,101.5 C 425.539,102.911 426.539,104.911 426.5,107.5C 424.992,105.819 423.992,103.819 423.5,101.5 Z"/></g>
<g><path style="opacity:1" fill="#68c7ca" d="M 227.5,102.5 C 225.212,106.456 222.212,109.789 218.5,112.5C 218.5,111.167 218.5,109.833 218.5,108.5C 219.552,108.649 220.552,108.483 221.5,108C 221.167,107.667 220.833,107.333 220.5,107C 222.48,104.836 224.813,103.336 227.5,102.5 Z"/></g>
<g><path style="opacity:1" fill="#b5e9e7" d="M 248.5,105.5 C 248.027,106.906 247.027,107.573 245.5,107.5C 245.973,106.094 246.973,105.427 248.5,105.5 Z"/></g>
<g><path style="opacity:1" fill="#d9f1f0" d="M 380.5,106.5 C 382.027,106.427 383.027,107.094 383.5,108.5C 381.973,108.573 380.973,107.906 380.5,106.5 Z"/></g>
<g><path style="opacity:1" fill="#82cfd0" d="M 52.5,108.5 C 50.5,111.167 48.1667,113.5 45.5,115.5C 44.7564,112.05 46.0897,110.384 49.5,110.5C 49.4017,107.752 50.4017,107.086 52.5,108.5 Z"/></g>
<g><path style="opacity:1" fill="#8ed7d6" d="M 8.5,107.5 C 8.5848,110.649 7.5848,113.316 5.5,115.5C 5.73292,112.458 6.73292,109.792 8.5,107.5 Z"/></g>
<g><path style="opacity:1" fill="#87d9d8" d="M 245.5,107.5 C 244.415,109.587 242.749,110.92 240.5,111.5C 241.585,109.413 243.251,108.08 245.5,107.5 Z"/></g>
<g><path style="opacity:1" fill="#a2e1e0" d="M 275.5,110.5 C 277.587,111.585 278.92,113.251 279.5,115.5C 277.413,114.415 276.08,112.749 275.5,110.5 Z"/></g>
<g><path style="opacity:1" fill="#e1f4f4" d="M 384.5,110.5 C 387.144,111.144 388.811,112.811 389.5,115.5C 387.188,114.522 385.522,112.855 384.5,110.5 Z"/></g>
<g><path style="opacity:1" fill="#87d1d2" d="M 45.5,115.5 C 44.8897,117.434 43.8897,119.101 42.5,120.5C 42.5,118.833 42.5,117.167 42.5,115.5C 43.5,115.5 44.5,115.5 45.5,115.5 Z"/></g>
<g><path style="opacity:1" fill="#d6f1f1" d="M 389.5,115.5 C 390.906,115.973 391.573,116.973 391.5,118.5C 390.094,118.027 389.427,117.027 389.5,115.5 Z"/></g>
<g><path style="opacity:1" fill="#c7ecee" d="M 237.5,115.5 C 237.34,117.153 236.674,118.486 235.5,119.5C 235.229,117.62 235.896,116.287 237.5,115.5 Z"/></g>
<g><path style="opacity:1" fill="#b8e7e7" d="M 279.5,115.5 C 280.906,115.973 281.573,116.973 281.5,118.5C 280.094,118.027 279.427,117.027 279.5,115.5 Z"/></g>
<g><path style="opacity:1" fill="#bfe9e8" d="M 5.5,115.5 C 5.43487,118.428 4.7682,121.095 3.5,123.5C 3.29379,120.505 3.96046,117.838 5.5,115.5 Z"/></g>
<g><path style="opacity:1" fill="#d9f3f3" d="M 391.5,118.5 C 392.674,119.514 393.34,120.847 393.5,122.5C 391.896,121.713 391.229,120.38 391.5,118.5 Z"/></g>
<g><path style="opacity:1" fill="#c2ebec" d="M 429.5,116.5 C 431.04,118.838 431.706,121.505 431.5,124.5C 430.542,122.698 429.875,120.698 429.5,118.5C 429.5,117.833 429.5,117.167 429.5,116.5 Z"/></g>
<g><path style="opacity:1" fill="#c0ecea" d="M 160.5,118.5 C 160.573,120.027 159.906,121.027 158.5,121.5C 158.427,119.973 159.094,118.973 160.5,118.5 Z"/></g>
<g><path style="opacity:1" fill="#c3ebeb" d="M 281.5,118.5 C 283.074,120.102 283.741,122.102 283.5,124.5C 282.262,122.786 281.595,120.786 281.5,118.5 Z"/></g>
<g><path style="opacity:1" fill="#b1e5e8" d="M 235.5,119.5 C 234.331,124.677 234.331,129.844 235.5,135C 235.164,136.03 234.497,136.53 233.5,136.5C 233.486,132.034 233.652,127.368 234,122.5C 234.232,121.263 234.732,120.263 235.5,119.5 Z"/></g>
<g><path style="opacity:1" fill="#6bc8c8" d="M 206.5,124.5 C 204.906,127.764 202.573,130.431 199.5,132.5C 199.377,128.96 201.043,126.96 204.5,126.5C 204.281,125.325 204.614,124.325 205.5,123.5C 206.107,123.624 206.44,123.957 206.5,124.5 Z"/></g>
<g><path style="opacity:1" fill="#caedee" d="M 393.5,122.5 C 394.924,124.515 395.59,126.848 395.5,129.5C 394.076,127.485 393.41,125.152 393.5,122.5 Z"/></g>
<g><path style="opacity:1" fill="#b9e7e9" d="M 283.5,124.5 C 284.162,126.304 284.495,128.304 284.5,130.5C 284.657,133.814 283.991,136.814 282.5,139.5C 283.254,134.537 283.587,129.537 283.5,124.5 Z"/></g>
<g><path style="opacity:1" fill="#e0f4f4" d="M 156.5,126.5 C 155.728,130.452 155.395,134.452 155.5,138.5C 154.84,137.036 154.507,135.369 154.5,133.5C 154.316,130.795 154.983,128.462 156.5,126.5 Z"/></g>
<g><path style="opacity:1" fill="#b0e5e4" d="M 41.5,122.5 C 39.844,128.364 39.1773,134.364 39.5,140.5C 38.353,136.354 38.1864,132.02 39,127.5C 39.3736,125.509 40.207,123.842 41.5,122.5 Z"/></g>
<g><path style="opacity:1" fill="#bfeaeb" d="M 431.5,125.5 C 432.653,131.319 432.819,137.319 432,143.5C 431.796,146.797 430.963,149.797 429.5,152.5C 431.103,143.582 431.77,134.582 431.5,125.5 Z"/></g>
<g><path style="opacity:1" fill="#9fdedf" d="M 395.5,129.5 C 396.643,132.976 396.81,136.642 396,140.5C 395.963,142.974 395.13,144.974 393.5,146.5C 395.117,141.091 395.783,135.425 395.5,129.5 Z"/></g>
<g><path style="opacity:1" fill="#bae7e8" d="M 39.5,140.5 C 40.7384,142.214 41.405,144.214 41.5,146.5C 39.9261,144.898 39.2594,142.898 39.5,140.5 Z"/></g>
<g><path style="opacity:1" fill="#b5e5e5" d="M 233.5,136.5 C 229.561,142.108 224.894,147.108 219.5,151.5C 223.439,145.892 228.106,140.892 233.5,136.5 Z"/></g>
<g><path style="opacity:1" fill="#69c6c8" d="M 158.5,147.5 C 162.167,147.833 164.167,149.833 164.5,153.5C 161.522,152.522 159.522,150.522 158.5,147.5 Z"/></g>
<g><path style="opacity:1" fill="#ddf3f3" d="M 393.5,146.5 C 392.89,148.434 391.89,150.101 390.5,151.5C 390.273,149.067 391.273,147.401 393.5,146.5 Z"/></g>
<g><path style="opacity:1" fill="#6fcacb" d="M 199.5,132.5 C 200.789,143.255 196.789,151.255 187.5,156.5C 188.7,153.172 191.033,150.672 194.5,149C 194.167,148.667 193.833,148.333 193.5,148C 195.871,144.602 197.038,140.769 197,136.5C 197.333,137.5 197.667,138.5 198,139.5C 198.186,136.964 198.686,134.631 199.5,132.5 Z"/></g>
<g><path style="opacity:1" fill="#c4ebea" d="M 43.5,150.5 C 45.2624,151.262 46.2624,152.596 46.5,154.5C 44.7376,153.738 43.7376,152.404 43.5,150.5 Z"/></g>
<g><path style="opacity:1" fill="#bce7e7" d="M 219.5,151.5 C 218.5,153.167 217.167,154.5 215.5,155.5C 215.833,153.167 217.167,151.833 219.5,151.5 Z"/></g>
<g><path style="opacity:1" fill="#caeeee" d="M 390.5,151.5 C 390.573,153.027 389.906,154.027 388.5,154.5C 388.427,152.973 389.094,151.973 390.5,151.5 Z"/></g>
<g><path style="opacity:1" fill="#dbf1f1" d="M 5.5,153.5 C 6.53747,154.93 7.20414,156.597 7.5,158.5C 5.78679,157.365 5.12012,155.698 5.5,153.5 Z"/></g>
<g><path style="opacity:1" fill="#bde9e8" d="M 46.5,154.5 C 48.5869,155.585 49.9202,157.251 50.5,159.5C 48.4131,158.415 47.0798,156.749 46.5,154.5 Z"/></g>
<g><path style="opacity:1" fill="#b5e7e6" d="M 165.5,154.5 C 167.027,154.427 168.027,155.094 168.5,156.5C 166.973,156.573 165.973,155.906 165.5,154.5 Z"/></g>
<g><path style="opacity:1" fill="#c5ebeb" d="M 388.5,154.5 C 386.906,157.764 384.573,160.431 381.5,162.5C 383.094,159.236 385.427,156.569 388.5,154.5 Z"/></g>
<g><path style="opacity:1" fill="#c5ebec" d="M 427.5,158.5 C 427.598,160.553 426.931,162.22 425.5,163.5C 425.402,161.447 426.069,159.78 427.5,158.5 Z"/></g>
<g><path style="opacity:1" fill="#caeceb" d="M 56.5,164.5 C 63.1667,170.5 69.5,176.833 75.5,183.5C 68.1667,178.167 61.8333,171.833 56.5,164.5 Z"/></g>
<g><path style="opacity:1" fill="#e6f3f3" d="M 13.5,171.5 C 14.5,171.833 15.1667,172.5 15.5,173.5C 14.1667,173.5 13.5,172.833 13.5,171.5 Z"/></g>
<g><path style="opacity:1" fill="#cceded" d="M 376.5,167.5 C 373.833,170.833 370.833,173.833 367.5,176.5C 369.5,172.5 372.5,169.5 376.5,167.5 Z"/></g>
<g><path style="opacity:1" fill="#7ecfcf" d="M 421.5,170.5 C 420.471,173.891 418.471,176.557 415.5,178.5C 416.718,175.412 418.218,172.412 420,169.5C 420.383,170.056 420.883,170.389 421.5,170.5 Z"/></g>
<g><path style="opacity:1" fill="#e3f4f3" d="M 15.5,174.5 C 17.1436,174.81 18.1436,175.81 18.5,177.5C 16.8564,177.19 15.8564,176.19 15.5,174.5 Z"/></g>
<g><path style="opacity:1" fill="#a7e2e2" d="M 200.5,170.5 C 198.234,174.436 195.234,177.769 191.5,180.5C 193.766,176.564 196.766,173.231 200.5,170.5 Z"/></g>
<g><path style="opacity:1" fill="#c5ebeb" d="M 366.5,177.5 C 365.5,179.167 364.167,180.5 362.5,181.5C 362.833,179.167 364.167,177.833 366.5,177.5 Z"/></g>
<g><path style="opacity:1" fill="#76cbcc" d="M 415.5,178.5 C 411.205,184.463 406.205,189.796 400.5,194.5C 400.586,193.504 400.252,192.671 399.5,192C 400.448,191.517 401.448,191.351 402.5,191.5C 402.5,190.5 402.5,189.5 402.5,188.5C 403.552,188.649 404.552,188.483 405.5,188C 405.167,187.667 404.833,187.333 404.5,187C 407.745,184.748 410.079,182.248 411.5,179.5C 412.736,178.754 414.07,178.421 415.5,178.5 Z"/></g>
<g><path style="opacity:1" fill="#6fcccd" d="M 75.5,183.5 C 78.5,185.833 81.1667,188.5 83.5,191.5C 78.6265,191.114 75.9598,188.447 75.5,183.5 Z"/></g>
<g><path style="opacity:1" fill="#c9ebee" d="M 260.5,194.5 C 259.167,193.167 257.833,193.167 256.5,194.5C 256.62,193.414 257.287,192.747 258.5,192.5C 259.713,192.747 260.38,193.414 260.5,194.5 Z"/></g>
<g><path style="opacity:1" fill="#c8ebeb" d="M 349.5,194.5 C 348.5,196.167 347.167,197.5 345.5,198.5C 345.833,196.167 347.167,194.833 349.5,194.5 Z"/></g>
<g><path style="opacity:1" fill="#bae8e7" d="M 345.5,198.5 C 344.833,199.833 343.833,200.833 342.5,201.5C 342.5,199.5 343.5,198.5 345.5,198.5 Z"/></g>
<g><path style="opacity:1" fill="#c2ebeb" d="M 342.5,201.5 C 341.833,202.833 340.833,203.833 339.5,204.5C 339.5,202.5 340.5,201.5 342.5,201.5 Z"/></g>
<g><path style="opacity:1" fill="#cbecec" d="M 269.5,202.5 C 272.5,204.833 275.167,207.5 277.5,210.5C 273.833,208.833 271.167,206.167 269.5,202.5 Z"/></g>
<g><path style="opacity:1" fill="#92dcdd" d="M 175.5,196.5 C 171.5,202.5 166.5,207.5 160.5,211.5C 165.167,206.167 170.167,201.167 175.5,196.5 Z"/></g>
<g><path style="opacity:1" fill="#34b9bd" d="M 362.5,181.5 C 361.489,183.372 360.655,185.372 360,187.5C 356.048,190.957 352.215,194.457 348.5,198C 348.833,198.333 349.167,198.667 349.5,199C 347.413,199.792 345.579,200.959 344,202.5C 341.892,204.807 340.559,207.14 340,209.5C 339.667,209.167 339.333,208.833 339,208.5C 336.277,210.934 333.777,213.601 331.5,216.5C 329.157,218.57 326.491,219.903 323.5,220.5C 323.5,220.167 323.5,219.833 323.5,219.5C 325.027,219.573 326.027,218.906 326.5,217.5C 330.5,212.833 334.833,208.5 339.5,204.5C 340.833,203.833 341.833,202.833 342.5,201.5C 343.833,200.833 344.833,199.833 345.5,198.5C 347.167,197.5 348.5,196.167 349.5,194.5C 353.5,189.833 357.833,185.5 362.5,181.5 Z"/></g>
<g><path style="opacity:1" fill="#9edfe0" d="M 160.5,211.5 C 159.856,214.144 158.189,215.811 155.5,216.5C 156.785,214.548 158.451,212.882 160.5,211.5 Z"/></g>
<g><path style="opacity:1" fill="#71cacd" d="M 238.5,212.5 C 238.5,213.833 238.5,215.167 238.5,216.5C 236.517,216.157 235.183,216.824 234.5,218.5C 233.903,218.265 233.57,217.765 233.5,217C 235.062,215.265 236.729,213.765 238.5,212.5 Z"/></g>
<g><path style="opacity:1" fill="#d6f0ef" d="M 107.5,215.5 C 109.027,215.427 110.027,216.094 110.5,217.5C 108.973,217.573 107.973,216.906 107.5,215.5 Z"/></g>
<g><path style="opacity:1" fill="#72cacc" d="M 209.5,214.5 C 207.5,217.167 205.167,219.5 202.5,221.5C 202.34,219.801 202.506,218.134 203,216.5C 203.333,216.833 203.667,217.167 204,217.5C 204.333,216.5 204.667,215.5 205,214.5C 206.277,213.928 207.777,213.928 209.5,214.5 Z"/></g>
<g><path style="opacity:1" fill="#c8eded" d="M 154.5,217.5 C 154.027,218.906 153.027,219.573 151.5,219.5C 151.973,218.094 152.973,217.427 154.5,217.5 Z"/></g>
<g><path style="opacity:1" fill="#bce9e9" d="M 326.5,217.5 C 326.027,218.906 325.027,219.573 323.5,219.5C 323.973,218.094 324.973,217.427 326.5,217.5 Z"/></g>
<g><path style="opacity:1" fill="#d4f2f2" d="M 285.5,218.5 C 287.027,218.427 288.027,219.094 288.5,220.5C 286.973,220.573 285.973,219.906 285.5,218.5 Z"/></g>
<g><path style="opacity:1" fill="#c4eded" d="M 323.5,219.5 C 323.5,219.833 323.5,220.167 323.5,220.5C 322.609,221.11 321.609,221.443 320.5,221.5C 320.973,220.094 321.973,219.427 323.5,219.5 Z"/></g>
<g><path style="opacity:1" fill="#88d5d6" d="M 110.5,217.5 C 113.203,219.181 115.869,220.847 118.5,222.5C 114.512,222.774 111.845,221.107 110.5,217.5 Z"/></g>
<g><path style="opacity:1" fill="#91d8d8" d="M 151.5,219.5 C 150.656,221.759 148.989,222.759 146.5,222.5C 147.899,221.11 149.566,220.11 151.5,219.5 Z"/></g>
<g><path style="opacity:1" fill="#cdeeee" d="M 288.5,220.5 C 292.576,222.186 296.576,223.853 300.5,225.5C 295.768,225.373 291.768,223.707 288.5,220.5 Z"/></g>
<g><path style="opacity:1" fill="#cceeed" d="M 320.5,221.5 C 319.713,223.104 318.38,223.771 316.5,223.5C 317.514,222.326 318.847,221.66 320.5,221.5 Z"/></g>
<g><path style="opacity:1" fill="#cbeeee" d="M 118.5,222.5 C 120.553,222.402 122.22,223.069 123.5,224.5C 121.447,224.598 119.78,223.931 118.5,222.5 Z"/></g>
<g><path style="opacity:1" fill="#c7eded" d="M 146.5,222.5 C 145.22,223.931 143.553,224.598 141.5,224.5C 142.78,223.069 144.447,222.402 146.5,222.5 Z"/></g>
<g><path style="opacity:1" fill="#b9e9e9" d="M 123.5,224.5 C 128.13,225.229 132.797,225.563 137.5,225.5C 135.866,226.161 134.033,226.494 132,226.5C 128.85,226.64 126.017,225.973 123.5,224.5 Z"/></g>
<g><path style="opacity:1" fill="#b7e9e9" d="M 316.5,223.5 C 314.852,224.927 312.852,225.76 310.5,226C 306.973,226.808 303.64,226.641 300.5,225.5C 305.946,225.636 311.28,224.969 316.5,223.5 Z"/></g>
<g><path style="opacity:1" fill="#6ac7ca" d="M 191.5,232.5 C 190.167,234.5 188.5,236.167 186.5,237.5C 186.67,236.178 186.337,235.011 185.5,234C 186.448,233.517 187.448,233.351 188.5,233.5C 188.351,232.448 188.517,231.448 189,230.5C 189.708,231.381 190.542,232.047 191.5,232.5 Z"/></g>
<g><path style="opacity:1" fill="#d1eded" d="M 255.5,239.5 C 257.167,240.5 258.5,241.833 259.5,243.5C 257.167,243.167 255.833,241.833 255.5,239.5 Z"/></g>
<g><path style="opacity:1" fill="#5ac3c6" d="M 357.5,236.5 C 353.833,240.833 349.833,244.833 345.5,248.5C 345.238,247.022 345.571,245.689 346.5,244.5C 349.302,242.467 352.302,239.967 355.5,237C 355.167,236.667 354.833,236.333 354.5,236C 355.749,235.26 356.749,235.427 357.5,236.5 Z"/></g>
<g><path style="opacity:1" fill="#b4e4e4" d="M 89.5,247.5 C 91.0269,247.427 92.0269,248.094 92.5,249.5C 90.9731,249.573 89.9731,248.906 89.5,247.5 Z"/></g>
<g><path style="opacity:1" fill="#eaf6f6" d="M 92.5,249.5 C 93.7095,249.932 94.7095,250.599 95.5,251.5C 93.8212,251.715 92.8212,251.048 92.5,249.5 Z"/></g>
<g><path style="opacity:1" fill="#7dcdce" d="M 344.5,248.5 C 342.049,251.277 339.049,253.277 335.5,254.5C 336.182,251.325 338.182,249.825 341.5,250C 341.167,249.667 340.833,249.333 340.5,249C 341.793,248.51 343.127,248.343 344.5,248.5 Z"/></g>
<g><path style="opacity:1" fill="#e4f3f3" d="M 163.5,254.5 C 162.994,256.105 162.327,256.439 161.5,255.5C 161.842,254.662 162.508,254.328 163.5,254.5 Z"/></g>
<g><path style="opacity:1" fill="#d6f0f0" d="M 103.5,255.5 C 105.153,255.66 106.486,256.326 107.5,257.5C 105.62,257.771 104.287,257.104 103.5,255.5 Z"/></g>
<g><path style="opacity:1" fill="#d4efef" d="M 108.5,257.5 C 110.403,257.796 112.07,258.463 113.5,259.5C 111.302,259.88 109.635,259.213 108.5,257.5 Z"/></g>
<g><path style="opacity:1" fill="#bee7e7" d="M 293.5,260.5 C 295.099,260.232 296.432,260.566 297.5,261.5C 295.625,263.078 294.292,262.745 293.5,260.5 Z"/></g>
</svg>
