<?xml version="1.0" encoding="UTF-8"?>
<!DOCTYPE svg PUBLIC "-//W3C//DTD SVG 1.1//EN" "http://www.w3.org/Graphics/SVG/1.1/DTD/svg11.dtd">
<svg xmlns="http://www.w3.org/2000/svg" version="1.1" width="512px" height="512px" style="shape-rendering:geometricPrecision; text-rendering:geometricPrecision; image-rendering:optimizeQuality; fill-rule:evenodd; clip-rule:evenodd" xmlns:xlink="http://www.w3.org/1999/xlink">
<g><path style="opacity:1" fill="#afbbc1" d="M 429.5,3.5 C 440.471,1.97182 445.304,6.63848 444,17.5C 434.864,43.909 425.53,70.2424 416,96.5C 412.257,100.259 407.757,101.426 402.5,100C 397.81,97.1186 395.977,92.9519 397,87.5C 406.273,60.348 415.939,33.348 426,6.5C 427.145,5.36362 428.312,4.36362 429.5,3.5 Z"/></g>
<g><path style="opacity:1" fill="#aebac1" d="M 347.5,26.5 C 353.476,25.2238 358.309,26.8905 362,31.5C 367,48.5 372,65.5 377,82.5C 377.524,93.6384 372.357,97.8051 361.5,95C 359.622,93.4571 358.122,91.6238 357,89.5C 351.201,71.2952 346.201,52.9618 342,34.5C 342.625,30.8907 344.458,28.224 347.5,26.5 Z"/></g>
<g><path style="opacity:1" fill="#afbac1" d="M 479.5,63.5 C 492.676,63.517 496.509,69.517 491,81.5C 477.209,92.2894 463.709,103.456 450.5,115C 437.178,118.676 432.012,113.842 435,100.5C 449.44,87.5485 464.273,75.2152 479.5,63.5 Z"/></g>
<g><path style="opacity:1" fill="#d48f11" d="M 355.5,182.5 C 357.095,202.264 359.595,221.93 363,241.5C 363.667,245.167 363.667,248.833 363,252.5C 361.534,254.325 359.701,254.825 357.5,254C 343.094,245.079 329.427,235.245 316.5,224.5C 311.479,212.124 305.645,200.124 299,188.5C 282.333,162.5 265.667,136.5 249,110.5C 242.948,100.512 239.448,89.8451 238.5,78.5C 246.188,69.3239 255.855,66.4906 267.5,70C 278.818,75.98 288.318,84.1466 296,94.5C 317.094,123.035 336.928,152.368 355.5,182.5 Z"/></g>
<g><path style="opacity:1" fill="#f9ae00" d="M 238.5,78.5 C 239.448,89.8451 242.948,100.512 249,110.5C 265.667,136.5 282.333,162.5 299,188.5C 305.645,200.124 311.479,212.124 316.5,224.5C 309.663,220.575 303.329,215.908 297.5,210.5C 292.12,198.741 285.954,187.408 279,176.5C 268.085,160.337 257.418,144.004 247,127.5C 242.02,119.208 237.854,110.541 234.5,101.5C 234.5,100.833 234.167,100.5 233.5,100.5C 232.434,92.411 234.101,85.0777 238.5,78.5 Z"/></g>
<g><path style="opacity:1" fill="#d48f11" d="M 233.5,100.5 C 234.167,100.5 234.5,100.833 234.5,101.5C 237.854,110.541 242.02,119.208 247,127.5C 257.418,144.004 268.085,160.337 279,176.5C 285.954,187.408 292.12,198.741 297.5,210.5C 255.615,175.617 216.282,137.951 179.5,97.5C 184.344,83.4104 194.01,78.2438 208.5,82C 218.427,86.1051 226.761,92.2718 233.5,100.5 Z"/></g>
<g><path style="opacity:1" fill="#f9c724" d="M 179.5,97.5 C 216.282,137.951 255.615,175.617 297.5,210.5C 303.329,215.908 309.663,220.575 316.5,224.5C 329.427,235.245 343.094,245.079 357.5,254C 359.701,254.825 361.534,254.325 363,252.5C 363.667,248.833 363.667,245.167 363,241.5C 359.595,221.93 357.095,202.264 355.5,182.5C 355.546,164.197 360.713,147.53 371,132.5C 381.135,120.115 393.301,117.115 407.5,123.5C 409.761,127.529 411.261,131.863 412,136.5C 411.937,161.001 413.937,185.334 418,209.5C 424.114,233.466 430.447,257.466 437,281.5C 446.321,314.377 448.654,347.711 444,381.5C 433.463,427.102 407.629,460.935 366.5,483C 358.971,487.103 351.304,490.603 343.5,493.5C 304.74,501.619 267.073,498.119 230.5,483C 221.507,478.505 212.84,473.505 204.5,468C 142.985,421.812 97.1515,363.312 67,292.5C 60.5146,279.277 59.1812,265.61 63,251.5C 66.7956,245.516 72.2956,242.516 79.5,242.5C 82.6054,242.939 85.6054,243.439 88.5,244C 79.0707,230.044 73.404,214.711 71.5,198C 71.4224,187.481 75.7557,179.481 84.5,174C 88.9092,173.468 93.2426,173.468 97.5,174C 89.3934,162.02 85.56,148.853 86,134.5C 89.9392,119.889 99.4392,113.056 114.5,114C 123.961,117.129 132.128,122.296 139,129.5C 138.45,123.524 138.117,117.524 138,111.5C 140.232,98.4364 148.066,91.4364 161.5,90.5C 167.956,91.7306 173.956,94.0639 179.5,97.5 Z"/></g>
<g><path style="opacity:1" fill="#d48f11" d="M 407.5,123.5 C 413.239,126.423 417.073,131.09 419,137.5C 420.667,151.178 422.334,164.845 424,178.5C 431.777,158.352 446.277,149.518 467.5,152C 474.097,154.263 478.264,158.763 480,165.5C 478.782,185.793 477.949,206.126 477.5,226.5C 478.681,260.023 480.348,293.523 482.5,327C 484.228,367.267 474.062,404.1 452,437.5C 424.152,471.843 387.985,490.51 343.5,493.5C 351.304,490.603 358.971,487.103 366.5,483C 407.629,460.935 433.463,427.102 444,381.5C 448.654,347.711 446.321,314.377 437,281.5C 430.447,257.466 424.114,233.466 418,209.5C 413.937,185.334 411.937,161.001 412,136.5C 411.261,131.863 409.761,127.529 407.5,123.5 Z"/></g>
<g><path style="opacity:1" fill="#d49012" d="M 141.5,133.5 C 165.097,160.27 188.93,186.937 213,213.5C 227.351,228.33 242.685,241.997 259,254.5C 259.585,261.616 256.418,266.449 249.5,269C 247.5,269.667 245.5,269.667 243.5,269C 235.778,258.272 226.944,248.439 217,239.5C 193.482,213.323 171.482,185.99 151,157.5C 146.353,150.055 143.187,142.055 141.5,133.5 Z"/></g>
<g><path style="opacity:1" fill="#d49012" d="M 100.5,177.5 C 132.07,217.254 165.736,255.421 201.5,292C 205.084,294.041 208.584,296.208 212,298.5C 213.292,306.422 210.792,312.922 204.5,318C 202.08,318.687 199.913,318.187 198,316.5C 195.746,312.993 193.746,309.327 192,305.5C 160.912,273.429 133.245,238.762 109,201.5C 104.462,194.05 101.629,186.05 100.5,177.5 Z"/></g>
<g><path style="opacity:1" fill="#d49012" d="M 90.5,247.5 C 106.699,270.547 123.533,293.214 141,315.5C 152.868,329.214 165.202,342.547 178,355.5C 175.254,378.268 168.921,379.268 159,358.5C 134.06,331.299 113.06,301.299 96,268.5C 92.9811,261.8 91.1478,254.8 90.5,247.5 Z"/></g>
<g><path style="opacity:1" fill="#afbbc1" d="M 67.5,360.5 C 78.6616,360.518 82.8283,365.851 80,376.5C 78.7727,378.726 76.9393,380.226 74.5,381C 56.8638,382.784 39.1971,384.284 21.5,385.5C 11.5069,385.331 7.67356,380.331 10,370.5C 11.2598,367.572 13.4265,365.739 16.5,365C 33.6599,363.586 50.6599,362.086 67.5,360.5 Z"/></g>
<g><path style="opacity:1" fill="#afbac1" d="M 87.5,395.5 C 98.4856,394.653 102.986,399.653 101,410.5C 100.167,411.5 99.3333,412.5 98.5,413.5C 76.1667,429.333 53.8333,445.167 31.5,461C 19.5775,465.064 14.0775,460.898 15,448.5C 16.1217,446.376 17.6217,444.543 19.5,443C 42.0697,426.914 64.7364,411.081 87.5,395.5 Z"/></g>
<g><path style="opacity:1" fill="#afbac1" d="M 117.5,422.5 C 128.54,421.704 133.04,426.704 131,437.5C 125.333,453.833 119.667,470.167 114,486.5C 107.546,493.115 101.213,493.115 95,486.5C 94.654,484.782 94.154,483.115 93.5,481.5C 99.5644,463.474 105.731,445.474 112,427.5C 113.73,425.598 115.563,423.931 117.5,422.5 Z"/></g>
</svg>
