<svg xmlns="http://www.w3.org/2000/svg" width="64" height="64" viewBox="0 0 64 64" fill="none" stroke="#73737380" stroke-width="3" stroke-linecap="round" stroke-linejoin="round">
  <!-- Left hand -->
  <path d="M18 38c-2-6 0-12 4-16l6-6c1.5-1.5 4-1 5 1s0 4-1.5 5.5L26 28"/>
  <path d="M22 42l-4-8"/>
  <!-- Right hand -->
  <path d="M46 38c2-6 0-12-4-16l-6-6c-1.5-1.5-4-1-5 1s0 4 1.5 5.5L38 28"/>
  <path d="M42 42l4-8"/>
  <!-- Sparkles -->
  <path d="M20 16l-2-4"/>
  <path d="M44 16l2-4"/>
  <path d="M32 10l0-4"/>
  <!-- Wrists -->
  <path d="M22 42c2 4 6 8 10 10"/>
  <path d="M42 42c-2 4-6 8-10 10"/>
</svg>
