<?xml version="1.0" encoding="UTF-8"?>
<!DOCTYPE svg PUBLIC "-//W3C//DTD SVG 1.1//EN" "http://www.w3.org/Graphics/SVG/1.1/DTD/svg11.dtd">
<svg xmlns="http://www.w3.org/2000/svg" version="1.1" width="200px" height="200px" style="shape-rendering:geometricPrecision; text-rendering:geometricPrecision; image-rendering:optimizeQuality; fill-rule:evenodd; clip-rule:evenodd" xmlns:xlink="http://www.w3.org/1999/xlink">
<g><path style="opacity:1" fill="#3b68ac" d="M 194.5,47.5 C 194.5,47.8333 194.5,48.1667 194.5,48.5C 193.974,52.5686 192.807,56.5686 191,60.5C 183.891,71.9044 176.891,83.2377 170,94.5C 169.167,93.6667 168.333,92.8333 167.5,92C 168.424,91.15 168.424,90.15 167.5,89C 169.56,85.7129 171.226,82.2129 172.5,78.5C 171.985,76.7749 171.318,75.1083 170.5,73.5C 169.777,76.0698 168.61,78.4032 167,80.5C 166.349,82.235 166.515,83.9017 167.5,85.5C 165.735,87.0528 163.902,87.3861 162,86.5C 161.83,84.1546 162.163,81.8212 163,79.5C 167.202,73.093 170.869,66.4263 174,59.5C 177.5,57.3333 180.333,54.5 182.5,51C 181.332,49.1291 181.832,47.6291 184,46.5C 184.49,45.2068 184.657,43.8734 184.5,42.5C 186.527,42.3379 188.527,42.5045 190.5,43C 191.579,44.8587 192.912,46.3587 194.5,47.5 Z"/></g>
<g><path style="opacity:1" fill="#060506" d="M 9.5,62.5 C 16.3239,61.8295 22.1572,63.8295 27,68.5C 37.6396,86.4653 48.6396,104.132 60,121.5C 61.7658,122.502 63.4325,122.168 65,120.5C 68.5259,113.283 72.6926,106.449 77.5,100C 81.6225,98.1545 84.7892,99.3212 87,103.5C 89.3286,108.099 89.6619,112.765 88,117.5C 80.7297,130.584 72.8964,143.251 64.5,155.5C 61.0973,157.187 58.264,156.52 56,153.5C 39.9909,126.76 23.9909,100.093 8,73.5C 7.36471,71.3822 6.53137,69.3822 5.5,67.5C 6.12666,65.2127 7.45999,63.546 9.5,62.5 Z"/></g>
<g><path style="opacity:1" fill="#395991" d="M 135.5,120.5 C 134.796,122.344 133.463,122.844 131.5,122C 129.095,120.004 126.595,118.17 124,116.5C 123.667,114.5 123.333,112.5 123,110.5C 118.466,105.045 114.799,99.0448 112,92.5C 110.691,90.1088 109.691,90.1088 109,92.5C 108.252,90.0913 107.085,87.9246 105.5,86C 105.645,85.228 105.978,84.5613 106.5,84C 103.118,78.2459 99.4511,72.5792 95.5,67C 91.0419,64.8594 86.3752,64.1928 81.5,65C 80.9415,65.7247 80.6082,66.5581 80.5,67.5C 82.0917,70.275 83.0917,73.275 83.5,76.5C 75.1397,66.4371 77.4731,61.9371 90.5,63C 94.8133,64.3062 98.3133,66.8062 101,70.5C 110.289,87.5856 120.456,104.086 131.5,120C 132.793,120.49 134.127,120.657 135.5,120.5 Z"/></g>
<g><path style="opacity:1" fill="#3a629e" d="M 194.5,47.5 C 192.912,46.3587 191.579,44.8587 190.5,43C 188.527,42.5045 186.527,42.3379 184.5,42.5C 184.657,43.8734 184.49,45.2068 184,46.5C 181.832,47.6291 181.332,49.1291 182.5,51C 180.333,54.5 177.5,57.3333 174,59.5C 170.869,66.4263 167.202,73.093 163,79.5C 162.163,81.8212 161.83,84.1546 162,86.5C 163.902,87.3861 165.735,87.0528 167.5,85.5C 166.515,83.9017 166.349,82.235 167,80.5C 168.61,78.4032 169.777,76.0698 170.5,73.5C 171.318,75.1083 171.985,76.7749 172.5,78.5C 171.226,82.2129 169.56,85.7129 167.5,89C 168.424,90.15 168.424,91.15 167.5,92C 168.333,92.8333 169.167,93.6667 170,94.5C 176.891,83.2377 183.891,71.9044 191,60.5C 192.807,56.5686 193.974,52.5686 194.5,48.5C 195.957,53.3782 195.123,58.0448 192,62.5C 179.059,84.0647 165.892,105.398 152.5,126.5C 152.631,125.624 152.298,124.957 151.5,124.5C 150.049,126.559 148.049,127.559 145.5,127.5C 145.5,126.167 145.5,124.833 145.5,123.5C 146.552,123.649 147.552,123.483 148.5,123C 147.476,121.633 147.976,120.8 150,120.5C 151.057,121.627 152.223,122.127 153.5,122C 156.444,117.67 159.111,113.17 161.5,108.5C 160.5,107.5 159.5,106.5 158.5,105.5C 157.549,106.326 156.549,106.492 155.5,106C 156.38,104.644 156.714,103.144 156.5,101.5C 154.876,101.36 153.71,102.027 153,103.5C 152.383,106.035 152.883,108.368 154.5,110.5C 152.633,111.797 152.3,113.297 153.5,115C 153.138,116.225 152.638,117.391 152,118.5C 151.546,116.464 150.713,114.63 149.5,113C 149.759,111.739 150.426,110.739 151.5,110C 150.196,109.196 149.529,108.029 149.5,106.5C 150.467,104.238 151.134,101.905 151.5,99.5C 152.5,99.5 153.5,99.5 154.5,99.5C 154.65,96.2039 155.65,93.2039 157.5,90.5C 157.48,89.2739 157.147,88.2739 156.5,87.5C 165.057,72.0582 173.89,56.7249 183,41.5C 189.038,38.631 192.872,40.631 194.5,47.5 Z"/></g>
<g><path style="opacity:1" fill="#3c66a7" d="M 135.5,120.5 C 142.264,109.294 149.264,98.2944 156.5,87.5C 157.147,88.2739 157.48,89.2739 157.5,90.5C 155.65,93.2039 154.65,96.2039 154.5,99.5C 153.5,99.5 152.5,99.5 151.5,99.5C 151.134,101.905 150.467,104.238 149.5,106.5C 149.529,108.029 150.196,109.196 151.5,110C 150.426,110.739 149.759,111.739 149.5,113C 150.713,114.63 151.546,116.464 152,118.5C 152.638,117.391 153.138,116.225 153.5,115C 152.3,113.297 152.633,111.797 154.5,110.5C 152.883,108.368 152.383,106.035 153,103.5C 153.71,102.027 154.876,101.36 156.5,101.5C 156.714,103.144 156.38,104.644 155.5,106C 156.549,106.492 157.549,106.326 158.5,105.5C 159.5,106.5 160.5,107.5 161.5,108.5C 159.111,113.17 156.444,117.67 153.5,122C 152.223,122.127 151.057,121.627 150,120.5C 147.976,120.8 147.476,121.633 148.5,123C 147.552,123.483 146.552,123.649 145.5,123.5C 145.5,124.833 145.5,126.167 145.5,127.5C 148.049,127.559 150.049,126.559 151.5,124.5C 152.298,124.957 152.631,125.624 152.5,126.5C 148.195,135.106 143.362,143.439 138,151.5C 135.668,154.791 132.835,155.291 129.5,153C 113.914,127.597 98.5802,102.097 83.5,76.5C 83.0917,73.275 82.0917,70.275 80.5,67.5C 80.6082,66.5581 80.9415,65.7247 81.5,65C 86.3752,64.1928 91.0419,64.8594 95.5,67C 99.4511,72.5792 103.118,78.2459 106.5,84C 105.978,84.5613 105.645,85.228 105.5,86C 107.085,87.9246 108.252,90.0913 109,92.5C 109.691,90.1088 110.691,90.1088 112,92.5C 114.799,99.0448 118.466,105.045 123,110.5C 123.333,112.5 123.667,114.5 124,116.5C 126.595,118.17 129.095,120.004 131.5,122C 133.463,122.844 134.796,122.344 135.5,120.5 Z"/></g>
</svg>
